G04*
G04 #@! TF.GenerationSoftware,Altium Limited,Altium Designer,24.6.1 (21)*
G04*
G04 Layer_Color=2752767*
%FSLAX44Y44*%
%MOMM*%
G71*
G04*
G04 #@! TF.SameCoordinates,958CD009-C92F-408B-8D77-DDB794054E94*
G04*
G04*
G04 #@! TF.FilePolarity,Positive*
G04*
G01*
G75*
%ADD13C,0.1270*%
%ADD48C,0.1693*%
D13*
X1080770Y570230D02*
X1083310Y572770D01*
X1085850D01*
X1083310Y575310D01*
X1085850Y577850D01*
X1083310D01*
X1080770Y580390D01*
X1078230Y577850D01*
X1075690D01*
X1078230Y575310D01*
X1075690Y572770D01*
X1078230D01*
X1080770Y570230D01*
Y544830D02*
X1083310Y547370D01*
X1085850D01*
X1083310Y549910D01*
X1085850Y552450D01*
X1083310D01*
X1080770Y554990D01*
X1078230Y552450D01*
X1075690D01*
X1078230Y549910D01*
X1075690Y547370D01*
X1078230D01*
X1080770Y544830D01*
X1268730Y543560D02*
X1271270Y546100D01*
X1273810D01*
X1271270Y548640D01*
X1273810Y551180D01*
X1271270D01*
X1268730Y553720D01*
X1266190Y551180D01*
X1263650D01*
X1266190Y548640D01*
X1263650Y546100D01*
X1266190D01*
X1268730Y543560D01*
Y568960D02*
X1271270Y571500D01*
X1273810D01*
X1271270Y574040D01*
X1273810Y576580D01*
X1271270D01*
X1268730Y579120D01*
X1266190Y576580D01*
X1263650D01*
X1266190Y574040D01*
X1263650Y571500D01*
X1266190D01*
X1268730Y568960D01*
X1080516Y652780D02*
X1083056Y655320D01*
X1085596D01*
X1083056Y657860D01*
X1085596Y660400D01*
X1083056D01*
X1080516Y662940D01*
X1077976Y660400D01*
X1075436D01*
X1077976Y657860D01*
X1075436Y655320D01*
X1077976D01*
X1080516Y652780D01*
X1080770Y678180D02*
X1083310Y680720D01*
X1085850D01*
X1083310Y683260D01*
X1085850Y685800D01*
X1083310D01*
X1080770Y688340D01*
X1078230Y685800D01*
X1075690D01*
X1078230Y683260D01*
X1075690Y680720D01*
X1078230D01*
X1080770Y678180D01*
X1270000D02*
X1272540Y680720D01*
X1275080D01*
X1272540Y683260D01*
X1275080Y685800D01*
X1272540D01*
X1270000Y688340D01*
X1267460Y685800D01*
X1264920D01*
X1267460Y683260D01*
X1264920Y680720D01*
X1267460D01*
X1270000Y678180D01*
X1269746Y652780D02*
X1272286Y655320D01*
X1274826D01*
X1272286Y657860D01*
X1274826Y660400D01*
X1272286D01*
X1269746Y662940D01*
X1267206Y660400D01*
X1264666D01*
X1267206Y657860D01*
X1264666Y655320D01*
X1267206D01*
X1269746Y652780D01*
X315612Y312600D02*
X320692Y317680D01*
X325772Y312600D01*
X320692Y307520D01*
X315612Y312600D01*
X265612D02*
X270692Y317680D01*
X275772Y312600D01*
X270692Y307520D01*
X265612Y312600D01*
X1666460Y509610D02*
X1661380Y519770D01*
X1671540D01*
X1666460Y509610D01*
Y641010D02*
X1661380Y651170D01*
X1671540D01*
X1666460Y641010D01*
X259080Y635000D02*
Y632460D01*
X264160D01*
Y635000D01*
X266700D01*
Y640080D01*
X264160D01*
Y642620D01*
X259080D01*
Y640080D01*
X256540D01*
Y635000D01*
X259080D01*
Y609600D02*
Y607060D01*
X264160D01*
Y609600D01*
X266700D01*
Y614680D01*
X264160D01*
Y617220D01*
X259080D01*
Y614680D01*
X256540D01*
Y609600D01*
X259080D01*
X281940Y607060D02*
X284480D01*
X287020Y609600D01*
X289560Y607060D01*
X292100D01*
Y609600D01*
X289560Y612140D01*
X292100Y614680D01*
Y617220D01*
X289560D01*
X287020Y614680D01*
X284480Y617220D01*
X281940D01*
Y614680D01*
X284480Y612140D01*
X281940Y609600D01*
Y607060D01*
Y632460D02*
X284480D01*
X287020Y635000D01*
X289560Y632460D01*
X292100D01*
Y635000D01*
X289560Y637540D01*
X292100Y640080D01*
Y642620D01*
X289560D01*
X287020Y640080D01*
X284480Y642620D01*
X281940D01*
Y640080D01*
X284480Y637540D01*
X281940Y635000D01*
Y632460D01*
X561590Y510540D02*
X564130Y515620D01*
X561590Y520700D01*
X566670Y518160D01*
X571750Y520700D01*
X569210Y515620D01*
X571750Y510540D01*
X566670Y513080D01*
X561590Y510540D01*
X497590D02*
X500130Y515620D01*
X497590Y520700D01*
X502670Y518160D01*
X507750Y520700D01*
X505210Y515620D01*
X507750Y510540D01*
X502670Y513080D01*
X497590Y510540D01*
X739140Y510290D02*
X741680Y515370D01*
X739140Y520450D01*
X744220Y517910D01*
X749300Y520450D01*
X746760Y515370D01*
X749300Y510290D01*
X744220Y512830D01*
X739140Y510290D01*
Y574290D02*
X741680Y579370D01*
X739140Y584450D01*
X744220Y581910D01*
X749300Y584450D01*
X746760Y579370D01*
X749300Y574290D01*
X744220Y576830D01*
X739140Y574290D01*
X1732740Y311150D02*
Y321310D01*
X1742900D01*
Y311150D01*
X1732740D01*
Y276150D02*
Y286310D01*
X1742900D01*
Y276150D01*
X1732740D01*
Y346150D02*
Y356310D01*
X1742900D01*
Y346150D01*
X1732740D01*
X253238Y563118D02*
Y573278D01*
X263398D01*
Y563118D01*
X253238D01*
X255270Y565150D02*
Y571246D01*
X261366D01*
Y565150D01*
X255270D01*
D48*
X1644440Y590390D02*
G03*
X1644440Y590390I-5080J0D01*
G01*
Y570390D02*
G03*
X1644440Y570390I-5080J0D01*
G01*
Y615390D02*
G03*
X1644440Y615390I-5080J0D01*
G01*
Y545390D02*
G03*
X1644440Y545390I-5080J0D01*
G01*
M02*
