M48
;Layer_Color=9474304
;FILE_FORMAT=2:5
INCH,TZ
;TYPE=PLATED
T01F00S00C0.02800
T02F00S00C0.03150
T03F00S00C0.03346
T04F00S00C0.03622
T05F00S00C0.04331
T06F00S00C0.05118
T07F00S00C0.09055
;TYPE=NON_PLATED
T08F00S00C0.03937
T09F00S00C0.04331
%
T01
X101700Y223700
T02
X499500Y216000
Y226000
X499900Y259000
X500000Y269000
X425500
X425400Y259000
X425500Y226500
Y216500
T03
X197902Y203000
X223098
X293000Y202902
Y228098
T04
X645417Y214720
Y224563
Y232437
Y242280
T05
X113000Y241000
Y251000
T06
X684181Y110720
Y124500
Y138280
T07
X656087Y202634
Y254366
T08
X106572Y123071
X126257
T09
X103000Y241000
Y251000
M30
