G04*
G04 #@! TF.GenerationSoftware,Altium Limited,Altium Designer,24.6.1 (21)*
G04*
G04 Layer_Color=8388736*
%FSLAX44Y44*%
%MOMM*%
G71*
G04*
G04 #@! TF.SameCoordinates,0C7A953C-3CFA-4B2B-8ADC-03269437489E*
G04*
G04*
G04 #@! TF.FilePolarity,Negative*
G04*
G01*
G75*
%ADD16R,4.2400X3.8100*%
%ADD17R,2.4032X2.4032*%
%ADD18R,1.8032X1.8032*%
G04:AMPARAMS|DCode=19|XSize=1.8032mm|YSize=1.8032mm|CornerRadius=0.9016mm|HoleSize=0mm|Usage=FLASHONLY|Rotation=90.000|XOffset=0mm|YOffset=0mm|HoleType=Round|Shape=RoundedRectangle|*
%AMROUNDEDRECTD19*
21,1,1.8032,0.0000,0,0,90.0*
21,1,0.0000,1.8032,0,0,90.0*
1,1,1.8032,0.0000,0.0000*
1,1,1.8032,0.0000,0.0000*
1,1,1.8032,0.0000,0.0000*
1,1,1.8032,0.0000,0.0000*
%
%ADD19ROUNDEDRECTD19*%
%ADD20C,1.2032*%
%ADD21C,1.6232*%
G04:AMPARAMS|DCode=22|XSize=1.6232mm|YSize=1.6232mm|CornerRadius=0.4566mm|HoleSize=0mm|Usage=FLASHONLY|Rotation=90.000|XOffset=0mm|YOffset=0mm|HoleType=Round|Shape=RoundedRectangle|*
%AMROUNDEDRECTD22*
21,1,1.6232,0.7100,0,0,90.0*
21,1,0.7100,1.6232,0,0,90.0*
1,1,0.9132,0.3550,0.3550*
1,1,0.9132,0.3550,-0.3550*
1,1,0.9132,-0.3550,-0.3550*
1,1,0.9132,-0.3550,0.3550*
%
%ADD22ROUNDEDRECTD22*%
%ADD23C,3.6532*%
%ADD24C,1.8032*%
%ADD25C,1.5532*%
%ADD26R,1.5532X1.5532*%
%ADD27R,1.5532X1.5532*%
%ADD28C,2.1532*%
G04:AMPARAMS|DCode=29|XSize=2.1532mm|YSize=2.1532mm|CornerRadius=0.5891mm|HoleSize=0mm|Usage=FLASHONLY|Rotation=90.000|XOffset=0mm|YOffset=0mm|HoleType=Round|Shape=RoundedRectangle|*
%AMROUNDEDRECTD29*
21,1,2.1532,0.9750,0,0,90.0*
21,1,0.9750,2.1532,0,0,90.0*
1,1,1.1782,0.4875,0.4875*
1,1,1.1782,0.4875,-0.4875*
1,1,1.1782,-0.4875,-0.4875*
1,1,1.1782,-0.4875,0.4875*
%
%ADD29ROUNDEDRECTD29*%
%ADD30C,1.4732*%
D16*
X528420Y292100D02*
D03*
X464720D02*
D03*
D17*
X335691Y269600D02*
D03*
Y355600D02*
D03*
X290692D02*
D03*
Y269600D02*
D03*
D18*
X1080770Y575310D02*
D03*
Y549910D02*
D03*
X1268730Y548640D02*
D03*
Y574040D02*
D03*
X287020Y637540D02*
D03*
D19*
X1080516Y657860D02*
D03*
X1080770Y683260D02*
D03*
X1270000D02*
D03*
X1269746Y657860D02*
D03*
D20*
X320692Y312600D02*
D03*
X270692D02*
D03*
D21*
X1639360Y590390D02*
D03*
Y570390D02*
D03*
Y615390D02*
D03*
D22*
Y545390D02*
D03*
D23*
X1666460Y514690D02*
D03*
Y646090D02*
D03*
D24*
X287020Y612140D02*
D03*
D25*
X566670Y515620D02*
D03*
X744220Y515370D02*
D03*
D26*
X502670Y515620D02*
D03*
D27*
X744220Y579370D02*
D03*
D28*
X1737820Y316230D02*
D03*
Y351230D02*
D03*
D29*
Y281230D02*
D03*
D30*
X258318Y568198D02*
D03*
M02*
