G04*
G04 #@! TF.GenerationSoftware,Altium Limited,Altium Designer,24.6.1 (21)*
G04*
G04 Layer_Color=32896*
%FSLAX44Y44*%
%MOMM*%
G71*
G04*
G04 #@! TF.SameCoordinates,0C7A953C-3CFA-4B2B-8ADC-03269437489E*
G04*
G04*
G04 #@! TF.FilePolarity,Positive*
G04*
G01*
G75*
%ADD47C,0.1500*%
D47*
X294693Y346339D02*
Y341340D01*
Y343840D01*
X309688D01*
X307189Y346339D01*
X294693Y323846D02*
Y333843D01*
X304690Y323846D01*
X307189D01*
X309688Y326345D01*
Y331344D01*
X307189Y333843D01*
X309688Y318848D02*
X299692D01*
X294693Y313849D01*
X299692Y308851D01*
X309688D01*
Y303853D02*
X294693D01*
Y296355D01*
X297192Y293856D01*
X307189D01*
X309688Y296355D01*
Y303853D01*
X307189Y278861D02*
X309688Y281360D01*
Y286358D01*
X307189Y288857D01*
X297192D01*
X294693Y286358D01*
Y281360D01*
X297192Y278861D01*
X1691762Y560396D02*
X1704258D01*
X1706758Y562896D01*
Y567894D01*
X1704258Y570393D01*
X1691762D01*
X1694262Y585388D02*
X1691762Y582889D01*
Y577891D01*
X1694262Y575392D01*
X1696761D01*
X1699260Y577891D01*
Y582889D01*
X1701759Y585388D01*
X1704258D01*
X1706758Y582889D01*
Y577891D01*
X1704258Y575392D01*
X1691762Y590387D02*
X1706758D01*
Y597884D01*
X1704258Y600383D01*
X1701759D01*
X1699260Y597884D01*
Y590387D01*
Y597884D01*
X1696761Y600383D01*
X1694262D01*
X1691762Y597884D01*
Y590387D01*
X1742318Y296236D02*
X1727322D01*
X1732321Y301235D01*
X1727322Y306233D01*
X1742318D01*
X1727322Y318729D02*
Y313731D01*
X1729822Y311232D01*
X1739818D01*
X1742318Y313731D01*
Y318729D01*
X1739818Y321228D01*
X1729822D01*
X1727322Y318729D01*
Y326227D02*
X1742318D01*
Y333724D01*
X1739818Y336223D01*
X1729822D01*
X1727322Y333724D01*
Y326227D01*
M02*
