G04*
G04 #@! TF.GenerationSoftware,Altium Limited,Altium Designer,24.6.1 (21)*
G04*
G04 Layer_Color=12632256*
%FSLAX44Y44*%
%MOMM*%
G71*
G04*
G04 #@! TF.SameCoordinates,0C7A953C-3CFA-4B2B-8ADC-03269437489E*
G04*
G04*
G04 #@! TF.FilePolarity,Positive*
G04*
G01*
G75*
%ADD31R,1.6000X1.6000*%
G04:AMPARAMS|DCode=32|XSize=1.6mm|YSize=1.6mm|CornerRadius=0.8mm|HoleSize=0mm|Usage=FLASHONLY|Rotation=90.000|XOffset=0mm|YOffset=0mm|HoleType=Round|Shape=RoundedRectangle|*
%AMROUNDEDRECTD32*
21,1,1.6000,0.0000,0,0,90.0*
21,1,0.0000,1.6000,0,0,90.0*
1,1,1.6000,0.0000,0.0000*
1,1,1.6000,0.0000,0.0000*
1,1,1.6000,0.0000,0.0000*
1,1,1.6000,0.0000,0.0000*
%
%ADD32ROUNDEDRECTD32*%
%ADD33C,1.0000*%
%ADD34C,1.4200*%
G04:AMPARAMS|DCode=35|XSize=1.42mm|YSize=1.42mm|CornerRadius=0.355mm|HoleSize=0mm|Usage=FLASHONLY|Rotation=90.000|XOffset=0mm|YOffset=0mm|HoleType=Round|Shape=RoundedRectangle|*
%AMROUNDEDRECTD35*
21,1,1.4200,0.7100,0,0,90.0*
21,1,0.7100,1.4200,0,0,90.0*
1,1,0.7100,0.3550,0.3550*
1,1,0.7100,0.3550,-0.3550*
1,1,0.7100,-0.3550,-0.3550*
1,1,0.7100,-0.3550,0.3550*
%
%ADD35ROUNDEDRECTD35*%
%ADD36C,3.4500*%
%ADD37C,1.6000*%
%ADD38C,1.3500*%
%ADD39R,1.3500X1.3500*%
%ADD40R,1.3500X1.3500*%
%ADD41C,1.9500*%
G04:AMPARAMS|DCode=42|XSize=1.95mm|YSize=1.95mm|CornerRadius=0.4875mm|HoleSize=0mm|Usage=FLASHONLY|Rotation=90.000|XOffset=0mm|YOffset=0mm|HoleType=Round|Shape=RoundedRectangle|*
%AMROUNDEDRECTD42*
21,1,1.9500,0.9750,0,0,90.0*
21,1,0.9750,1.9500,0,0,90.0*
1,1,0.9750,0.4875,0.4875*
1,1,0.9750,0.4875,-0.4875*
1,1,0.9750,-0.4875,-0.4875*
1,1,0.9750,-0.4875,0.4875*
%
%ADD42ROUNDEDRECTD42*%
D31*
X1080770Y575310D02*
D03*
Y549910D02*
D03*
X1268730Y548640D02*
D03*
Y574040D02*
D03*
X287020Y637540D02*
D03*
D32*
X1080516Y657860D02*
D03*
X1080770Y683260D02*
D03*
X1270000D02*
D03*
X1269746Y657860D02*
D03*
D33*
X320692Y312600D02*
D03*
X270692D02*
D03*
D34*
X1639360Y590390D02*
D03*
Y570390D02*
D03*
Y615390D02*
D03*
D35*
Y545390D02*
D03*
D36*
X1666460Y514690D02*
D03*
Y646090D02*
D03*
D37*
X287020Y612140D02*
D03*
D38*
X566670Y515620D02*
D03*
X744220Y515370D02*
D03*
D39*
X502670Y515620D02*
D03*
D40*
X744220Y579370D02*
D03*
D41*
X1737820Y316230D02*
D03*
Y351230D02*
D03*
D42*
Y281230D02*
D03*
M02*
