G04*
G04 #@! TF.GenerationSoftware,Altium Limited,Altium Designer,24.6.1 (21)*
G04*
G04 Layer_Color=65535*
%FSLAX44Y44*%
%MOMM*%
G71*
G04*
G04 #@! TF.SameCoordinates,0C7A953C-3CFA-4B2B-8ADC-03269437489E*
G04*
G04*
G04 #@! TF.FilePolarity,Positive*
G04*
G01*
G75*
%ADD10C,0.1200*%
%ADD11C,0.2000*%
%ADD12C,0.2500*%
%ADD13C,0.1270*%
%ADD14C,0.2540*%
G36*
X1119378Y588518D02*
X1115314D01*
Y594614D01*
X1119378D01*
Y588518D01*
D02*
G37*
G36*
X1134110D02*
X1130046D01*
Y594614D01*
X1134110D01*
Y588518D01*
D02*
G37*
G36*
X1148842D02*
X1144778D01*
Y594614D01*
X1148842D01*
Y588518D01*
D02*
G37*
G36*
X1164082D02*
X1160018D01*
Y594614D01*
X1164082D01*
Y588518D01*
D02*
G37*
G36*
X1119378Y640334D02*
X1115314D01*
Y646430D01*
X1119378D01*
Y640334D01*
D02*
G37*
G36*
X1134110D02*
X1130046D01*
Y646430D01*
X1134110D01*
Y640334D01*
D02*
G37*
G36*
X1148842D02*
X1144778D01*
Y646430D01*
X1148842D01*
Y640334D01*
D02*
G37*
G36*
X1164082D02*
X1160018D01*
Y646430D01*
X1164082D01*
Y640334D01*
D02*
G37*
G36*
X1101585Y671473D02*
X1100087D01*
Y672162D01*
X1101585D01*
Y671473D01*
D02*
G37*
G36*
X1101689Y564805D02*
X1103300D01*
Y564115D01*
X1101689D01*
Y562505D01*
X1100999D01*
Y564115D01*
X1099388D01*
Y564805D01*
X1100999D01*
Y566416D01*
X1101689D01*
Y564805D01*
D02*
G37*
G36*
X1247381Y671473D02*
X1245883D01*
Y672162D01*
X1247381D01*
Y671473D01*
D02*
G37*
G36*
X1247993Y565059D02*
X1249604D01*
Y564370D01*
X1247993D01*
Y562759D01*
X1247303D01*
Y564370D01*
X1245692D01*
Y565059D01*
X1247303D01*
Y566670D01*
X1247993D01*
Y565059D01*
D02*
G37*
G36*
X1087579Y625443D02*
Y624780D01*
X1084012D01*
Y624476D01*
X1083508D01*
Y624780D01*
X1081990D01*
Y625490D01*
X1083508D01*
Y626942D01*
X1084145D01*
X1087579Y625443D01*
D02*
G37*
G36*
X1082434Y623852D02*
X1082481Y623839D01*
X1082534Y623826D01*
X1082587Y623806D01*
X1082640Y623773D01*
X1082693Y623726D01*
X1082699Y623720D01*
X1082713Y623700D01*
X1082732Y623673D01*
X1082759Y623634D01*
X1082785Y623587D01*
X1082805Y623534D01*
X1082819Y623474D01*
X1082825Y623408D01*
Y623375D01*
X1082819Y623342D01*
X1082812Y623296D01*
X1082792Y623249D01*
X1082772Y623196D01*
X1082739Y623143D01*
X1082693Y623090D01*
X1082686Y623083D01*
X1082666Y623070D01*
X1082640Y623050D01*
X1082600Y623024D01*
X1082553Y622997D01*
X1082501Y622977D01*
X1082434Y622964D01*
X1082368Y622957D01*
X1082361D01*
X1082335D01*
X1082302Y622964D01*
X1082262Y622971D01*
X1082209Y622990D01*
X1082156Y623010D01*
X1082103Y623044D01*
X1082050Y623090D01*
X1082043Y623097D01*
X1082030Y623116D01*
X1082010Y623143D01*
X1081983Y623176D01*
X1081957Y623223D01*
X1081937Y623282D01*
X1081924Y623342D01*
X1081917Y623408D01*
Y623441D01*
X1081924Y623474D01*
X1081937Y623514D01*
X1081950Y623567D01*
X1081970Y623620D01*
X1082003Y623673D01*
X1082050Y623726D01*
X1082056Y623733D01*
X1082076Y623746D01*
X1082103Y623766D01*
X1082142Y623793D01*
X1082189Y623819D01*
X1082242Y623839D01*
X1082302Y623852D01*
X1082368Y623859D01*
X1082374D01*
X1082401D01*
X1082434Y623852D01*
D02*
G37*
G36*
X1082706Y622241D02*
X1082699Y622235D01*
X1082686Y622195D01*
X1082666Y622135D01*
X1082646Y622056D01*
X1082620Y621970D01*
X1082600Y621877D01*
X1082587Y621784D01*
X1082580Y621698D01*
Y621658D01*
X1082587Y621632D01*
X1082593Y621565D01*
X1082613Y621472D01*
X1082646Y621373D01*
X1082699Y621273D01*
X1082766Y621174D01*
X1082858Y621081D01*
X1082865D01*
X1082872Y621068D01*
X1082912Y621041D01*
X1082978Y621008D01*
X1083064Y620962D01*
X1083170Y620922D01*
X1083309Y620882D01*
X1083462Y620856D01*
X1083634Y620849D01*
X1083641D01*
X1083654D01*
X1083680D01*
X1083714Y620856D01*
X1083753D01*
X1083800Y620863D01*
X1083906Y620882D01*
X1084025Y620909D01*
X1084151Y620955D01*
X1084270Y621015D01*
X1084377Y621095D01*
X1084390Y621108D01*
X1084416Y621141D01*
X1084463Y621194D01*
X1084516Y621267D01*
X1084562Y621366D01*
X1084609Y621479D01*
X1084635Y621612D01*
X1084648Y621764D01*
Y621830D01*
X1084642Y621870D01*
X1084635Y621963D01*
X1084629Y622009D01*
X1084615Y622049D01*
X1087519D01*
Y620299D01*
X1086869D01*
Y621353D01*
X1085238D01*
Y621340D01*
X1085225Y621300D01*
X1085212Y621240D01*
X1085192Y621161D01*
X1085152Y621068D01*
X1085106Y620962D01*
X1085046Y620849D01*
X1084973Y620737D01*
X1084880Y620624D01*
X1084774Y620511D01*
X1084648Y620405D01*
X1084496Y620312D01*
X1084324Y620233D01*
X1084131Y620173D01*
X1084025Y620153D01*
X1083906Y620133D01*
X1083787Y620127D01*
X1083661Y620120D01*
X1083654D01*
X1083627D01*
X1083588D01*
X1083535Y620127D01*
X1083468Y620133D01*
X1083395Y620140D01*
X1083309Y620153D01*
X1083216Y620173D01*
X1083018Y620219D01*
X1082912Y620253D01*
X1082805Y620299D01*
X1082699Y620345D01*
X1082593Y620398D01*
X1082494Y620465D01*
X1082394Y620538D01*
X1082388Y620544D01*
X1082374Y620558D01*
X1082348Y620577D01*
X1082315Y620611D01*
X1082275Y620650D01*
X1082235Y620697D01*
X1082189Y620756D01*
X1082142Y620823D01*
X1082096Y620889D01*
X1082050Y620969D01*
X1081970Y621147D01*
X1081937Y621240D01*
X1081910Y621346D01*
X1081897Y621452D01*
X1081890Y621565D01*
Y621625D01*
X1081897Y621691D01*
X1081910Y621777D01*
X1081924Y621883D01*
X1081950Y621996D01*
X1081990Y622122D01*
X1082036Y622248D01*
X1082706D01*
Y622241D01*
D02*
G37*
G36*
X1084191Y617919D02*
X1083502D01*
Y619417D01*
X1084191D01*
Y617919D01*
D02*
G37*
G36*
X1082103Y617375D02*
X1082123Y617369D01*
X1082156Y617349D01*
X1082202Y617322D01*
X1082262Y617289D01*
X1082328Y617249D01*
X1082408Y617203D01*
X1082494Y617157D01*
X1082593Y617104D01*
X1082699Y617044D01*
X1082812Y616984D01*
X1082931Y616925D01*
X1083196Y616792D01*
X1083475Y616653D01*
X1083773Y616520D01*
X1084085Y616388D01*
X1084403Y616268D01*
X1084721Y616156D01*
X1085033Y616063D01*
X1085338Y615990D01*
X1085484Y615963D01*
X1085630Y615943D01*
X1085769Y615937D01*
X1085901Y615930D01*
X1085908D01*
X1085921D01*
X1085941D01*
X1085968D01*
X1086047Y615943D01*
X1086140Y615957D01*
X1086246Y615977D01*
X1086359Y616016D01*
X1086471Y616063D01*
X1086571Y616129D01*
X1086584Y616136D01*
X1086611Y616162D01*
X1086650Y616209D01*
X1086703Y616268D01*
X1086750Y616341D01*
X1086790Y616434D01*
X1086816Y616540D01*
X1086829Y616653D01*
Y616693D01*
X1086823Y616746D01*
X1086810Y616812D01*
X1086783Y616905D01*
X1086757Y617011D01*
X1086710Y617130D01*
X1086650Y617269D01*
X1087380D01*
Y617263D01*
X1087386Y617249D01*
X1087400Y617230D01*
X1087413Y617196D01*
X1087426Y617157D01*
X1087446Y617117D01*
X1087479Y617011D01*
X1087519Y616885D01*
X1087545Y616752D01*
X1087572Y616613D01*
X1087579Y616467D01*
Y616414D01*
X1087572Y616368D01*
X1087565Y616321D01*
X1087559Y616262D01*
X1087525Y616136D01*
X1087479Y615983D01*
X1087446Y615910D01*
X1087400Y615831D01*
X1087353Y615758D01*
X1087300Y615685D01*
X1087234Y615612D01*
X1087161Y615546D01*
X1087154Y615539D01*
X1087141Y615532D01*
X1087121Y615513D01*
X1087088Y615493D01*
X1087042Y615466D01*
X1086989Y615440D01*
X1086929Y615406D01*
X1086863Y615373D01*
X1086783Y615340D01*
X1086703Y615307D01*
X1086611Y615280D01*
X1086505Y615254D01*
X1086398Y615234D01*
X1086279Y615214D01*
X1086160Y615208D01*
X1086027Y615201D01*
X1086021D01*
X1086001D01*
X1085968D01*
X1085921Y615208D01*
X1085862D01*
X1085789Y615214D01*
X1085716Y615221D01*
X1085623Y615234D01*
X1085530Y615247D01*
X1085424Y615267D01*
X1085311Y615287D01*
X1085192Y615314D01*
X1084940Y615380D01*
X1084668Y615473D01*
X1084662D01*
X1084635Y615486D01*
X1084595Y615499D01*
X1084536Y615526D01*
X1084463Y615552D01*
X1084370Y615592D01*
X1084270Y615632D01*
X1084151Y615685D01*
X1084012Y615745D01*
X1083866Y615811D01*
X1083700Y615884D01*
X1083528Y615970D01*
X1083336Y616056D01*
X1083137Y616156D01*
X1082918Y616262D01*
X1082693Y616381D01*
Y615082D01*
X1081990D01*
Y617382D01*
X1082096D01*
X1082103Y617375D01*
D02*
G37*
G36*
X1083614Y614313D02*
X1083674Y614306D01*
X1083753Y614299D01*
X1083840Y614286D01*
X1083939Y614266D01*
X1084045Y614240D01*
X1084151Y614207D01*
X1084264Y614167D01*
X1084377Y614114D01*
X1084489Y614047D01*
X1084589Y613974D01*
X1084688Y613895D01*
X1084781Y613796D01*
X1084861Y613683D01*
X1084867Y613689D01*
X1084880Y613709D01*
X1084907Y613736D01*
X1084940Y613769D01*
X1084986Y613815D01*
X1085040Y613862D01*
X1085099Y613915D01*
X1085172Y613968D01*
X1085258Y614021D01*
X1085351Y614074D01*
X1085451Y614120D01*
X1085557Y614167D01*
X1085676Y614200D01*
X1085802Y614226D01*
X1085935Y614246D01*
X1086080Y614253D01*
X1086087D01*
X1086114D01*
X1086147D01*
X1086200Y614246D01*
X1086253Y614240D01*
X1086326Y614233D01*
X1086398Y614226D01*
X1086485Y614207D01*
X1086657Y614167D01*
X1086843Y614107D01*
X1086929Y614067D01*
X1087022Y614021D01*
X1087101Y613968D01*
X1087181Y613908D01*
X1087187Y613902D01*
X1087201Y613895D01*
X1087221Y613875D01*
X1087241Y613849D01*
X1087307Y613776D01*
X1087380Y613683D01*
X1087453Y613570D01*
X1087519Y613438D01*
X1087539Y613365D01*
X1087559Y613292D01*
X1087572Y613219D01*
X1087579Y613139D01*
Y613093D01*
X1087572Y613066D01*
X1087565Y613027D01*
X1087559Y612980D01*
X1087525Y612874D01*
X1087479Y612755D01*
X1087446Y612688D01*
X1087406Y612622D01*
X1087360Y612556D01*
X1087300Y612490D01*
X1087241Y612423D01*
X1087168Y612357D01*
X1087161Y612350D01*
X1087148Y612344D01*
X1087128Y612324D01*
X1087095Y612304D01*
X1087055Y612277D01*
X1087002Y612251D01*
X1086949Y612218D01*
X1086882Y612185D01*
X1086810Y612151D01*
X1086723Y612118D01*
X1086637Y612092D01*
X1086538Y612065D01*
X1086432Y612045D01*
X1086326Y612025D01*
X1086206Y612019D01*
X1086080Y612012D01*
X1086074D01*
X1086047D01*
X1086007Y612019D01*
X1085948D01*
X1085881Y612032D01*
X1085808Y612045D01*
X1085722Y612059D01*
X1085630Y612085D01*
X1085537Y612112D01*
X1085437Y612151D01*
X1085338Y612198D01*
X1085232Y612251D01*
X1085132Y612317D01*
X1085040Y612397D01*
X1084947Y612483D01*
X1084861Y612582D01*
X1084854Y612576D01*
X1084841Y612556D01*
X1084814Y612523D01*
X1084781Y612483D01*
X1084741Y612436D01*
X1084688Y612383D01*
X1084622Y612324D01*
X1084542Y612264D01*
X1084456Y612205D01*
X1084363Y612145D01*
X1084257Y612092D01*
X1084138Y612045D01*
X1084005Y612006D01*
X1083866Y611972D01*
X1083714Y611953D01*
X1083548Y611946D01*
X1083541D01*
X1083515D01*
X1083475D01*
X1083422Y611953D01*
X1083362D01*
X1083283Y611966D01*
X1083203Y611972D01*
X1083117Y611986D01*
X1082925Y612025D01*
X1082719Y612085D01*
X1082620Y612125D01*
X1082520Y612165D01*
X1082428Y612218D01*
X1082341Y612277D01*
X1082335Y612284D01*
X1082321Y612291D01*
X1082302Y612310D01*
X1082268Y612337D01*
X1082235Y612370D01*
X1082202Y612410D01*
X1082116Y612509D01*
X1082036Y612629D01*
X1081964Y612775D01*
X1081930Y612861D01*
X1081910Y612947D01*
X1081897Y613040D01*
X1081890Y613139D01*
Y613192D01*
X1081897Y613225D01*
X1081904Y613272D01*
X1081917Y613325D01*
X1081944Y613444D01*
X1081997Y613583D01*
X1082036Y613650D01*
X1082076Y613723D01*
X1082129Y613796D01*
X1082189Y613862D01*
X1082255Y613928D01*
X1082335Y613994D01*
X1082341Y614001D01*
X1082355Y614008D01*
X1082381Y614021D01*
X1082414Y614047D01*
X1082461Y614067D01*
X1082514Y614094D01*
X1082580Y614127D01*
X1082653Y614154D01*
X1082732Y614187D01*
X1082819Y614213D01*
X1082918Y614246D01*
X1083024Y614266D01*
X1083137Y614286D01*
X1083256Y614306D01*
X1083389Y614313D01*
X1083521Y614319D01*
X1083535D01*
X1083561D01*
X1083614Y614313D01*
D02*
G37*
G36*
X1087519Y610806D02*
X1083787Y610282D01*
X1087519Y609771D01*
Y609022D01*
X1081917Y610043D01*
Y610534D01*
X1087519Y611548D01*
Y610806D01*
D02*
G37*
G36*
X1273199Y625776D02*
X1269467Y625252D01*
X1273199Y624742D01*
Y623993D01*
X1267598Y625013D01*
Y625504D01*
X1273199Y626518D01*
Y625776D01*
D02*
G37*
G36*
X1270641Y623615D02*
X1270747Y623608D01*
X1270873Y623601D01*
X1271012Y623588D01*
X1271158Y623575D01*
X1271317Y623555D01*
X1271482Y623528D01*
X1271648Y623495D01*
X1271821Y623456D01*
X1271993Y623416D01*
X1272159Y623363D01*
X1272325Y623303D01*
X1272477Y623237D01*
X1272484Y623230D01*
X1272510Y623217D01*
X1272550Y623197D01*
X1272603Y623164D01*
X1272663Y623124D01*
X1272729Y623078D01*
X1272802Y623018D01*
X1272875Y622952D01*
X1272948Y622879D01*
X1273020Y622799D01*
X1273087Y622706D01*
X1273147Y622607D01*
X1273199Y622508D01*
X1273239Y622388D01*
X1273266Y622269D01*
X1273272Y622143D01*
Y622110D01*
X1273266Y622077D01*
X1273259Y622030D01*
X1273246Y621970D01*
X1273233Y621904D01*
X1273206Y621831D01*
X1273173Y621752D01*
X1273133Y621672D01*
X1273080Y621579D01*
X1273014Y621493D01*
X1272934Y621400D01*
X1272848Y621314D01*
X1272742Y621221D01*
X1272616Y621142D01*
X1272477Y621062D01*
X1272470Y621056D01*
X1272444Y621042D01*
X1272397Y621022D01*
X1272331Y620996D01*
X1272258Y620970D01*
X1272159Y620936D01*
X1272053Y620896D01*
X1271927Y620857D01*
X1271787Y620824D01*
X1271635Y620784D01*
X1271463Y620751D01*
X1271284Y620718D01*
X1271091Y620698D01*
X1270886Y620678D01*
X1270667Y620664D01*
X1270435Y620658D01*
X1270428D01*
X1270422D01*
X1270402D01*
X1270375D01*
X1270309D01*
X1270216Y620664D01*
X1270104Y620671D01*
X1269971Y620678D01*
X1269825Y620691D01*
X1269673Y620711D01*
X1269507Y620737D01*
X1269335Y620764D01*
X1269162Y620797D01*
X1268990Y620837D01*
X1268818Y620890D01*
X1268652Y620950D01*
X1268493Y621016D01*
X1268347Y621089D01*
X1268340Y621095D01*
X1268314Y621109D01*
X1268280Y621135D01*
X1268227Y621162D01*
X1268175Y621208D01*
X1268108Y621255D01*
X1268042Y621314D01*
X1267976Y621381D01*
X1267903Y621453D01*
X1267836Y621533D01*
X1267770Y621619D01*
X1267717Y621712D01*
X1267664Y621811D01*
X1267631Y621917D01*
X1267604Y622030D01*
X1267598Y622143D01*
Y622169D01*
X1267604Y622209D01*
X1267611Y622249D01*
X1267624Y622309D01*
X1267637Y622375D01*
X1267664Y622441D01*
X1267691Y622521D01*
X1267730Y622607D01*
X1267783Y622693D01*
X1267843Y622779D01*
X1267916Y622872D01*
X1268002Y622958D01*
X1268102Y623045D01*
X1268221Y623131D01*
X1268353Y623210D01*
X1268360Y623217D01*
X1268387Y623230D01*
X1268433Y623250D01*
X1268493Y623276D01*
X1268572Y623303D01*
X1268665Y623343D01*
X1268771Y623376D01*
X1268897Y623416D01*
X1269036Y623456D01*
X1269195Y623489D01*
X1269368Y623528D01*
X1269553Y623555D01*
X1269752Y623582D01*
X1269964Y623601D01*
X1270196Y623615D01*
X1270435Y623621D01*
X1270442D01*
X1270448D01*
X1270468D01*
X1270488D01*
X1270554D01*
X1270641Y623615D01*
D02*
G37*
G36*
X1273199Y619219D02*
X1269043D01*
X1269036D01*
X1269010D01*
X1268970Y619213D01*
X1268924D01*
X1268864Y619206D01*
X1268798Y619193D01*
X1268652Y619153D01*
X1268579Y619127D01*
X1268506Y619093D01*
X1268440Y619047D01*
X1268380Y619001D01*
X1268334Y618941D01*
X1268294Y618868D01*
X1268267Y618788D01*
X1268261Y618696D01*
Y618656D01*
X1268274Y618616D01*
X1268287Y618563D01*
X1268307Y618503D01*
X1268340Y618444D01*
X1268387Y618384D01*
X1268453Y618324D01*
X1268459Y618318D01*
X1268493Y618298D01*
X1268532Y618278D01*
X1268599Y618245D01*
X1268678Y618218D01*
X1268771Y618198D01*
X1268884Y618178D01*
X1269010Y618172D01*
X1273199D01*
Y617463D01*
X1269089D01*
X1269083D01*
X1269056D01*
X1269016D01*
X1268970Y617469D01*
X1268910Y617476D01*
X1268837Y617482D01*
X1268758Y617496D01*
X1268678Y617509D01*
X1268499Y617555D01*
X1268314Y617622D01*
X1268221Y617661D01*
X1268135Y617708D01*
X1268048Y617767D01*
X1267976Y617834D01*
X1267969Y617840D01*
X1267962Y617847D01*
X1267942Y617873D01*
X1267916Y617900D01*
X1267889Y617933D01*
X1267856Y617973D01*
X1267790Y618079D01*
X1267717Y618205D01*
X1267657Y618351D01*
X1267631Y618430D01*
X1267611Y618517D01*
X1267604Y618603D01*
X1267598Y618696D01*
Y618749D01*
X1267604Y618782D01*
X1267611Y618828D01*
X1267618Y618881D01*
X1267651Y619007D01*
X1267697Y619146D01*
X1267730Y619219D01*
X1267763Y619292D01*
X1267810Y619365D01*
X1267863Y619438D01*
X1267923Y619511D01*
X1267996Y619577D01*
X1268002Y619584D01*
X1268015Y619591D01*
X1268035Y619610D01*
X1268068Y619630D01*
X1268108Y619657D01*
X1268155Y619690D01*
X1268214Y619723D01*
X1268274Y619750D01*
X1268347Y619783D01*
X1268426Y619816D01*
X1268513Y619849D01*
X1268605Y619876D01*
X1268705Y619896D01*
X1268804Y619915D01*
X1268917Y619922D01*
X1269036Y619929D01*
X1273199D01*
Y619219D01*
D02*
G37*
G36*
Y614526D02*
X1272537D01*
Y615374D01*
X1267671D01*
Y616084D01*
X1272537D01*
Y616932D01*
X1273199D01*
Y614526D01*
D02*
G37*
%LPC*%
G36*
X1084012Y626458D02*
Y625490D01*
X1086219D01*
X1086233Y625510D01*
X1084012Y626458D01*
D02*
G37*
G36*
X1085981Y613524D02*
X1085974D01*
X1085961D01*
X1085941D01*
X1085915D01*
X1085848Y613517D01*
X1085762Y613511D01*
X1085663Y613497D01*
X1085563Y613484D01*
X1085464Y613457D01*
X1085378Y613424D01*
X1085371Y613418D01*
X1085344Y613404D01*
X1085311Y613385D01*
X1085272Y613351D01*
X1085225Y613312D01*
X1085192Y613259D01*
X1085165Y613205D01*
X1085159Y613146D01*
Y613139D01*
X1085165Y613119D01*
X1085172Y613086D01*
X1085185Y613046D01*
X1085212Y613000D01*
X1085252Y612954D01*
X1085305Y612907D01*
X1085378Y612867D01*
X1085391Y612861D01*
X1085417Y612848D01*
X1085464Y612834D01*
X1085537Y612814D01*
X1085623Y612794D01*
X1085722Y612775D01*
X1085842Y612768D01*
X1085974Y612761D01*
X1085987D01*
X1086014D01*
X1086060D01*
X1086120Y612768D01*
X1086186Y612775D01*
X1086266Y612781D01*
X1086432Y612808D01*
X1086597Y612854D01*
X1086677Y612887D01*
X1086743Y612920D01*
X1086803Y612967D01*
X1086849Y613020D01*
X1086876Y613079D01*
X1086889Y613146D01*
Y613159D01*
X1086882Y613179D01*
X1086876Y613205D01*
X1086863Y613232D01*
X1086843Y613265D01*
X1086816Y613298D01*
X1086776Y613331D01*
X1086730Y613371D01*
X1086670Y613404D01*
X1086597Y613438D01*
X1086505Y613464D01*
X1086405Y613491D01*
X1086279Y613511D01*
X1086140Y613517D01*
X1085981Y613524D01*
D02*
G37*
G36*
X1083541Y613590D02*
X1083535D01*
X1083521D01*
X1083502D01*
X1083468D01*
X1083389Y613583D01*
X1083296Y613577D01*
X1083183Y613557D01*
X1083064Y613537D01*
X1082951Y613504D01*
X1082845Y613464D01*
X1082832Y613457D01*
X1082805Y613444D01*
X1082759Y613411D01*
X1082713Y613378D01*
X1082666Y613331D01*
X1082620Y613272D01*
X1082593Y613212D01*
X1082580Y613139D01*
Y613133D01*
X1082587Y613106D01*
X1082593Y613066D01*
X1082613Y613020D01*
X1082646Y612967D01*
X1082686Y612914D01*
X1082752Y612861D01*
X1082839Y612808D01*
X1082852Y612801D01*
X1082885Y612788D01*
X1082945Y612768D01*
X1083024Y612741D01*
X1083124Y612715D01*
X1083250Y612695D01*
X1083389Y612682D01*
X1083541Y612675D01*
X1083555D01*
X1083581D01*
X1083627D01*
X1083687Y612682D01*
X1083760Y612688D01*
X1083833Y612702D01*
X1084005Y612735D01*
X1084091Y612755D01*
X1084178Y612788D01*
X1084257Y612828D01*
X1084324Y612867D01*
X1084383Y612927D01*
X1084430Y612987D01*
X1084456Y613060D01*
X1084469Y613139D01*
Y613159D01*
X1084463Y613179D01*
X1084456Y613212D01*
X1084443Y613245D01*
X1084423Y613278D01*
X1084390Y613325D01*
X1084357Y613365D01*
X1084304Y613404D01*
X1084244Y613444D01*
X1084171Y613484D01*
X1084078Y613517D01*
X1083972Y613550D01*
X1083846Y613570D01*
X1083707Y613583D01*
X1083541Y613590D01*
D02*
G37*
G36*
X1270621Y622879D02*
X1270435D01*
X1270422D01*
X1270389D01*
X1270336D01*
X1270263D01*
X1270176Y622872D01*
X1270070Y622865D01*
X1269958D01*
X1269838Y622852D01*
X1269580Y622832D01*
X1269308Y622799D01*
X1269175Y622773D01*
X1269050Y622753D01*
X1268930Y622720D01*
X1268818Y622687D01*
X1268811D01*
X1268791Y622680D01*
X1268764Y622667D01*
X1268731Y622653D01*
X1268639Y622607D01*
X1268539Y622547D01*
X1268440Y622468D01*
X1268347Y622375D01*
X1268314Y622322D01*
X1268287Y622262D01*
X1268267Y622202D01*
X1268261Y622136D01*
Y622123D01*
X1268267Y622083D01*
X1268294Y622017D01*
X1268307Y621984D01*
X1268334Y621944D01*
X1268360Y621898D01*
X1268400Y621858D01*
X1268446Y621811D01*
X1268499Y621765D01*
X1268566Y621725D01*
X1268645Y621679D01*
X1268731Y621639D01*
X1268831Y621599D01*
X1268837D01*
X1268857Y621593D01*
X1268890Y621579D01*
X1268937Y621566D01*
X1268997Y621553D01*
X1269063Y621533D01*
X1269149Y621520D01*
X1269248Y621500D01*
X1269354Y621480D01*
X1269474Y621460D01*
X1269606Y621447D01*
X1269746Y621433D01*
X1269905Y621420D01*
X1270070Y621407D01*
X1270249Y621400D01*
X1270435D01*
X1270448D01*
X1270481D01*
X1270535D01*
X1270607D01*
X1270694Y621407D01*
X1270793Y621414D01*
X1270906D01*
X1271025Y621427D01*
X1271284Y621447D01*
X1271549Y621487D01*
X1271681Y621507D01*
X1271807Y621533D01*
X1271927Y621566D01*
X1272039Y621599D01*
X1272046D01*
X1272066Y621606D01*
X1272092Y621619D01*
X1272126Y621632D01*
X1272172Y621659D01*
X1272218Y621679D01*
X1272325Y621745D01*
X1272430Y621825D01*
X1272477Y621871D01*
X1272523Y621917D01*
X1272557Y621970D01*
X1272583Y622030D01*
X1272603Y622090D01*
X1272609Y622156D01*
Y622169D01*
X1272603Y622189D01*
Y622216D01*
X1272576Y622276D01*
X1272563Y622315D01*
X1272537Y622355D01*
X1272503Y622395D01*
X1272470Y622441D01*
X1272417Y622488D01*
X1272364Y622527D01*
X1272298Y622574D01*
X1272218Y622614D01*
X1272132Y622653D01*
X1272026Y622693D01*
X1272020D01*
X1272000Y622700D01*
X1271966Y622713D01*
X1271920Y622720D01*
X1271860Y622733D01*
X1271787Y622753D01*
X1271708Y622766D01*
X1271609Y622786D01*
X1271502Y622806D01*
X1271383Y622819D01*
X1271251Y622832D01*
X1271111Y622852D01*
X1270959Y622859D01*
X1270793Y622872D01*
X1270621Y622879D01*
D02*
G37*
%LPD*%
D10*
X1108482Y669671D02*
G03*
X1108482Y669671I-7646J0D01*
G01*
X1108990Y562864D02*
G03*
X1108990Y562864I-7646J0D01*
G01*
X1255294Y563118D02*
G03*
X1255294Y563118I-7646J0D01*
G01*
X1254278Y669671D02*
G03*
X1254278Y669671I-7646J0D01*
G01*
X1070610Y534670D02*
X1283970D01*
Y695960D01*
X1070610D02*
X1283970D01*
X1201674Y626999D02*
X1227963D01*
Y633984D01*
X1240663Y623824D01*
X1227963Y613029D02*
X1240663Y623824D01*
X1227963Y613029D02*
Y620649D01*
X1201674D02*
Y626999D01*
X1119378Y678688D02*
X1153668D01*
Y665988D02*
Y678688D01*
X1119378Y665988D02*
X1153668D01*
X1119378D02*
Y678688D01*
X1185926Y655574D02*
X1252474D01*
X1185926Y589026D02*
X1252474D01*
X1108202Y639826D02*
X1169162D01*
X1108202Y595122D02*
X1169162D01*
X1108202D02*
Y639826D01*
X1185926Y589026D02*
Y655574D01*
X1252474Y589026D02*
Y655574D01*
X1169162Y595122D02*
Y639826D01*
X1201674Y620649D02*
X1227963D01*
D11*
X1769258Y514790D02*
G03*
X1766260Y517890I-2998J100D01*
G01*
Y642890D02*
G03*
X1769258Y645990I0J3000D01*
G01*
X306969Y272600D02*
X319667D01*
X255692D02*
X273652D01*
X255692Y352600D02*
X273652D01*
X310271D02*
X318651D01*
X348691Y341100D02*
X348692Y284100D01*
X255692Y272600D02*
Y352600D01*
X1766260Y523890D02*
X1769260Y523890D01*
X1766260Y507890D02*
X1769260D01*
X1766260D02*
Y514890D01*
X1769258Y514790D02*
X1769260Y507890D01*
X1766260Y517890D02*
Y523890D01*
Y636890D02*
Y642890D01*
Y636890D02*
X1769260D01*
X1769258Y645990D02*
X1769260Y652890D01*
X1766260Y645890D02*
Y652890D01*
X1769260D01*
Y523890D02*
Y636890D01*
X1629260Y514890D02*
X1643720D01*
X1689200D02*
X1766260D01*
X1689200Y645890D02*
X1766260D01*
X1629260D02*
X1643720D01*
X256020Y652540D02*
X318020D01*
Y597140D02*
Y652540D01*
X256020Y597140D02*
X318020D01*
X256020Y645220D02*
Y652540D01*
Y597140D02*
Y604460D01*
X515795Y506795D02*
Y524445D01*
X553545D01*
Y506795D02*
Y524445D01*
X515795Y506795D02*
X553545D01*
X547370D02*
Y524445D01*
X735395Y566245D02*
X753045D01*
Y528495D02*
Y566245D01*
X735395Y528495D02*
X753045D01*
X735395D02*
Y566245D01*
Y534670D02*
X753045D01*
X1697820Y263730D02*
Y368730D01*
X1771820Y263730D02*
Y368730D01*
X1697820D02*
X1771820D01*
X1760270Y259730D02*
X1766770D01*
X1766020Y263730D02*
X1766770Y259730D01*
X1760270D02*
X1761020Y263730D01*
X1766020D02*
X1771820D01*
X1708620D02*
X1709370Y259730D01*
X1702870D02*
X1703620Y263730D01*
X1702870Y259730D02*
X1709370D01*
X1697820Y263730D02*
X1703620D01*
X1708620D02*
X1761020D01*
X447920Y314900D02*
Y317250D01*
Y266950D02*
Y269300D01*
Y266950D02*
X545220D01*
Y314900D02*
Y317250D01*
Y266950D02*
Y269300D01*
X447920Y317250D02*
X545220D01*
D12*
X288270Y659040D02*
G03*
X288270Y659040I-1250J0D01*
G01*
D13*
X1069340Y534670D02*
Y695960D01*
X1628752Y514890D02*
Y645890D01*
D14*
X1070619Y734057D02*
Y718822D01*
X1078237D01*
X1080776Y721362D01*
Y723901D01*
X1078237Y726440D01*
X1070619D01*
X1078237D01*
X1080776Y728979D01*
Y731518D01*
X1078237Y734057D01*
X1070619D01*
X1085854D02*
Y721362D01*
X1088393Y718822D01*
X1093472D01*
X1096011Y721362D01*
Y734057D01*
X1111246Y731518D02*
X1108707Y734057D01*
X1103628D01*
X1101089Y731518D01*
Y721362D01*
X1103628Y718822D01*
X1108707D01*
X1111246Y721362D01*
X1116324Y734057D02*
Y718822D01*
Y723901D01*
X1126481Y734057D01*
X1118863Y726440D01*
X1126481Y718822D01*
X328863Y242739D02*
Y237660D01*
Y240200D01*
X344099D01*
X341559Y242739D01*
X328863Y219886D02*
Y230043D01*
X339020Y219886D01*
X341559D01*
X344099Y222425D01*
Y227504D01*
X341559Y230043D01*
X344099Y214808D02*
X333942D01*
X328863Y209729D01*
X333942Y204651D01*
X344099D01*
Y199573D02*
X328863D01*
Y191955D01*
X331403Y189416D01*
X341559D01*
X344099Y191955D01*
Y199573D01*
X341559Y174181D02*
X344099Y176720D01*
Y181798D01*
X341559Y184338D01*
X331403D01*
X328863Y181798D01*
Y176720D01*
X331403Y174181D01*
X1629664Y688335D02*
Y675639D01*
X1632203Y673100D01*
X1637281D01*
X1639821Y675639D01*
Y688335D01*
X1655056Y685796D02*
X1652517Y688335D01*
X1647438D01*
X1644899Y685796D01*
Y683257D01*
X1647438Y680717D01*
X1652517D01*
X1655056Y678178D01*
Y675639D01*
X1652517Y673100D01*
X1647438D01*
X1644899Y675639D01*
X1660134Y688335D02*
Y673100D01*
X1667752D01*
X1670291Y675639D01*
Y678178D01*
X1667752Y680717D01*
X1660134D01*
X1667752D01*
X1670291Y683257D01*
Y685796D01*
X1667752Y688335D01*
X1660134D01*
X278146Y695958D02*
X275606Y698497D01*
X270528D01*
X267989Y695958D01*
Y693419D01*
X270528Y690880D01*
X275606D01*
X278146Y688340D01*
Y685801D01*
X275606Y683262D01*
X270528D01*
X267989Y685801D01*
X290842Y698497D02*
X285763D01*
X283224Y695958D01*
Y685801D01*
X285763Y683262D01*
X290842D01*
X293381Y685801D01*
Y695958D01*
X290842Y698497D01*
X298459D02*
Y683262D01*
X308616D01*
X313694Y680723D02*
X323851D01*
X328929Y698497D02*
Y683262D01*
X339086D01*
X351782Y698497D02*
X346703D01*
X344164Y695958D01*
Y685801D01*
X346703Y683262D01*
X351782D01*
X354321Y685801D01*
Y695958D01*
X351782Y698497D01*
X359399Y683262D02*
Y693419D01*
X364478Y698497D01*
X369556Y693419D01*
Y683262D01*
Y690880D01*
X359399D01*
X374634Y698497D02*
Y683262D01*
X382252D01*
X384791Y685801D01*
Y695958D01*
X382252Y698497D01*
X374634D01*
X499113Y581657D02*
Y566423D01*
X506731D01*
X509270Y568962D01*
Y579118D01*
X506731Y581657D01*
X499113D01*
X514348Y566423D02*
X519427D01*
X516888D01*
Y581657D01*
X514348Y579118D01*
X741684Y615947D02*
Y600713D01*
X749302D01*
X751841Y603252D01*
Y613408D01*
X749302Y615947D01*
X741684D01*
X767076Y600713D02*
X756919D01*
X767076Y610869D01*
Y613408D01*
X764537Y615947D01*
X759458D01*
X756919Y613408D01*
X1685297Y388623D02*
Y403857D01*
X1690375Y398779D01*
X1695453Y403857D01*
Y388623D01*
X1708149Y403857D02*
X1703071D01*
X1700532Y401318D01*
Y391162D01*
X1703071Y388623D01*
X1708149D01*
X1710688Y391162D01*
Y401318D01*
X1708149Y403857D01*
X1715767D02*
Y388623D01*
X1723384D01*
X1725923Y391162D01*
Y401318D01*
X1723384Y403857D01*
X1715767D01*
X576586Y298447D02*
X566429D01*
Y290830D01*
X571507D01*
X566429D01*
Y283213D01*
X581664Y298447D02*
Y285752D01*
X584203Y283213D01*
X589282D01*
X591821Y285752D01*
Y298447D01*
X607056Y295908D02*
X604517Y298447D01*
X599438D01*
X596899Y295908D01*
Y293369D01*
X599438Y290830D01*
X604517D01*
X607056Y288291D01*
Y285752D01*
X604517Y283213D01*
X599438D01*
X596899Y285752D01*
X622291Y298447D02*
X612134D01*
Y283213D01*
X622291D01*
X612134Y290830D02*
X617213D01*
M02*
