G04*
G04 #@! TF.GenerationSoftware,Altium Limited,Altium Designer,24.6.1 (21)*
G04*
G04 Layer_Color=32768*
%FSLAX44Y44*%
%MOMM*%
G71*
G04*
G04 #@! TF.SameCoordinates,0C7A953C-3CFA-4B2B-8ADC-03269437489E*
G04*
G04*
G04 #@! TF.FilePolarity,Positive*
G04*
G01*
G75*
%ADD44C,0.1000*%
D44*
X1766260Y642890D02*
G03*
X1769258Y645990I0J3000D01*
G01*
Y514790D02*
G03*
X1766260Y517890I-2998J100D01*
G01*
X298692Y263600D02*
Y272600D01*
X282692Y263600D02*
X298692D01*
X282692D02*
Y272600D01*
X343691Y263600D02*
Y272600D01*
X327691Y263600D02*
X343691D01*
X327691D02*
Y272600D01*
X343691Y352600D02*
Y361600D01*
X327691D02*
X343691D01*
X327691Y352600D02*
Y361600D01*
X282692Y352600D02*
Y361600D01*
X298692D01*
Y352600D02*
Y361600D01*
X255692Y352600D02*
X346152D01*
X348692Y272600D02*
Y352600D01*
X255692Y272600D02*
X348692D01*
X255692D02*
Y352600D01*
X1629260Y645890D02*
X1766260D01*
X1629260Y514890D02*
X1763720Y52610D01*
X1629260Y514890D02*
Y645890D01*
X1766260Y652890D02*
X1769260D01*
X1766260Y645890D02*
Y652890D01*
X1769258Y645990D02*
X1769260Y652890D01*
Y523890D02*
Y636890D01*
X1766260D02*
X1769260D01*
X1766260D02*
Y642890D01*
Y517890D02*
Y523890D01*
X1769258Y514790D02*
X1769260Y507890D01*
X1766260D02*
Y514890D01*
Y507890D02*
X1769260D01*
X1766260Y523890D02*
X1769260Y523890D01*
X1708620Y263730D02*
X1761020D01*
X1697820D02*
X1703620D01*
X1702870Y259730D02*
X1709370D01*
X1702870D02*
X1703620Y263730D01*
X1708620D02*
X1709370Y259730D01*
X1766020Y263730D02*
X1771820D01*
X1760270Y259730D02*
X1761020Y263730D01*
X1766020D02*
X1766770Y259730D01*
X1760270D02*
X1766770D01*
X1697820Y368730D02*
X1771820D01*
Y263730D02*
Y368730D01*
X1697820Y263730D02*
Y368730D01*
M02*
